<?xml version="1.0" encoding="UTF-8"?>
<svg width="65px" height="96px" viewBox="0 0 65 96" version="1.1" xmlns="http://www.w3.org/2000/svg" xmlns:xlink="http://www.w3.org/1999/xlink">
    <title>45AF3655-78BC-48E8-A594-219141477350</title>
    <g id="KYC-V-2.1" stroke="none" stroke-width="1" fill="none" fill-rule="evenodd">
        <g id="Splash-screen" transform="translate(-156.000000, -310.000000)" fill="#FFFFFF">
            <g id="b-Sign" transform="translate(156.000000, 310.000000)">
                <ellipse id="Oval" cx="38.3616384" cy="6.23376623" rx="6.39360639" ry="6.23376623"></ellipse>
                <path d="M16,8 L15.9996394,37.8357572 C21.0640904,33.3295883 27.5237816,30.6285714 34.56,30.6285714 C50.819263,30.6285714 64,45.0513984 64,62.8428571 C64,62.9785761 63.999233,63.1140989 63.9977035,63.2494209 C63.9992812,63.3754661 64,63.5019339 64,63.6285714 C63.9977035,82.0138383 49.673112,96 32,96 C14.6387726,96 0.506706927,82.0138383 0.0133251589,64.5718617 L0,64.5714286 L0,15.8571429 C0,11.4909284 3.62316516,8 8,8 L16,8 Z M31.68,45.0857143 C22.4899818,45.0857143 15.04,53.1765685 15.04,63.1571429 C15.04,73.1377173 22.4899818,81.2285714 31.68,81.2285714 C40.8700182,81.2285714 48.32,73.1377173 48.32,63.1571429 C48.32,53.1765685 40.8700182,45.0857143 31.68,45.0857143 Z" id="Combined-Shape" fill-rule="nonzero"></path>
            </g>
        </g>
    </g>
</svg>